<?xml version="1.0" standalone="no"?>
<!DOCTYPE svg PUBLIC "-//W3C//DTD SVG 20010904//EN"
 "http://www.w3.org/TR/2001/REC-SVG-20010904/DTD/svg10.dtd">
<svg version="1.0" xmlns="http://www.w3.org/2000/svg"
 width="195.000000pt" height="195.000000pt" viewBox="0 0 195.000000 195.000000"
 preserveAspectRatio="xMidYMid meet">

<g transform="translate(0.000000,195.000000) scale(0.100000,-0.100000)"
fill="#000000" stroke="none">
<path d="M695 1383 c-47 -12 -105 -79 -105 -122 0 -7 53 -11 155 -13 l155 -3
2 -290 c3 -321 5 -329 67 -367 39 -25 122 -30 156 -11 19 11 19 12 -5 21 -53
20 -55 27 -60 291 -6 278 -9 291 -85 337 l-40 24 160 0 c141 0 164 2 192 20
36 22 58 52 68 93 l7 27 -323 -1 c-178 -1 -333 -4 -344 -6z"/>
</g>
</svg>
